<mxfile host="app.diagrams.net" modified="2023-08-13T06:01:11.538Z" agent="Mozilla/5.0 (Macintosh; Intel Mac OS X 10_15_7) AppleWebKit/537.36 (KHTML, like Gecko) Chrome/115.0.0.0 Safari/537.36" version="21.6.6" etag="4-vrHfA1Lf0h2t_qONAD" type="github">
  <diagram name="Page-1" id="Rv-5M63rp1D8ltkl-qkl">
    <mxGraphModel>
      <root>
        <mxCell id="0" />
        <mxCell id="1" parent="0" />
      </root>
    </mxGraphModel>
  </diagram>
</mxfile>
